<!--?xml version="1.0" standalone="no"?-->

<svg xmlns="http://www.w3.org/2000/svg" width="300.000000pt" height="300.000000pt" viewBox="0 0 300.000000 300.000000" preserveAspectRatio="xMidYMid meet">
<g transform="translate(0.000000,300.000000) scale(0.100000,-0.100000)" fill="#050505" stroke="none">
<path stroke-width="20" class="node" id="node1" d="M1365 2384 c-107 -16 -199 -45 -275 -87 -158 -87 -277 -202 -363
-349 -69 -117 -92 -186 -113 -332 -16 -108 -16 -124 0 -232 25 -173 63 -269
162 -409 98 -139 271 -269 429 -323 90 -30 268 -55 345 -47 173 17 275 49 404
125 142 84 243 189 333 345 62 109 92 213 108 375 8 77 -17 255 -47 345 -83
243 -309 469 -553 553 -64 22 -249 53 -306 51 -19 -1 -74 -7 -124 -15z m240
-304 c211 -34 396 -199 462 -410 24 -77 23 -275 -1 -345 -38 -106 -72 -159
-151 -239 -112 -113 -211 -159 -364 -172 -213 -18 -396 66 -526 238 -92 122
-129 272 -107 433 6 46 20 103 30 127 10 24 21 50 24 58 3 8 26 42 50 75 139
188 350 273 583 235z" style="position: relative;"></path>
</g>
<g transform="translate(0.000000,300.000000) scale(0.100000,-0.100000)" fill="#A0A0A0" stroke="none">

<path class="node" id="node3" d="M1382 2079 c-133 -22 -269 -111 -360 -234 -24 -33 -47 -67 -50 -75
-3 -8 -14 -34 -24 -58 -10 -24 -24 -81 -30 -127 -22 -161 15 -311 107 -433
130 -172 313 -256 526 -238 153 13 252 59 364 172 126 127 168 228 169 409 1
171 -35 272 -137 389 -140 162 -343 232 -565 195z" style="position: relative;"></path>
</g>
</svg>