<!--?xml version="1.0" standalone="no"?-->

<svg version="1.0" xmlns="http://www.w3.org/2000/svg" width="300.000000pt" height="300.000000pt" viewBox="0 0 300.000000 300.000000" preserveAspectRatio="xMidYMid meet">
<g transform="translate(0.000000,300.000000) scale(0.100000,-0.100000)" fill="#080808" stroke="none">
<path class="node" id="node1" d="M64 2990 c-25 -10 -64 -57 -64 -77 0 -26 34 -79 478 -746 l445 -667
-445 -668 c-245 -368 -453 -683 -462 -700 -27 -52 3 -112 64 -127 36 -9 2855
1400 2894 1446 30 36 31 45 10 88 -14 28 -154 100 -1446 746 -786 393 -1435
715 -1441 714 -7 0 -22 -4 -33 -9z m1475 -906 c633 -317 1151 -579 1151 -584
0 -10 -2308 -1165 -2315 -1158 -3 2 164 258 370 568 267 401 375 571 375 590
0 20 -108 189 -375 590 -206 310 -375 564 -375 566 0 2 4 4 9 4 4 0 526 -259
1160 -576z"></path>
</g>
<g transform="translate(0.000000,300.000000) scale(0.100000,-0.100000)" fill="#9E9E9E" stroke="none">
<path class="node" id="node2" d="M0 2964 l0 -37 21 27 c12 15 31 32 43 36 17 7 12 9 -21 9 -43 1 -43
1 -43 -35z"></path>


<path class="node" id="node5" d="M370 2656 c0 -2 169 -256 375 -566 267 -401 375 -570 375 -590 0 -19
-108 -189 -375 -590 -206 -310 -373 -566 -370 -568 7 -7 2315 1148 2315 1158
0 8 -2295 1160 -2311 1160 -5 0 -9 -2 -9 -4z"></path>

<path class="node" id="node7" d="M1 43 l-1 -43 43 1 c23 0 35 3 27 6 -23 9 -51 36 -61 58 -6 15 -8 10
-8 -22z"></path>
</g>
</svg>